<svg width="25" height="25" viewBox="0 0 25 25" fill="none" xmlns="http://www.w3.org/2000/svg">
<path d="M16.9312 8.06877C15.8069 6.94443 14.2196 6.21692 12.5 6.21692C10.7804 6.21692 9.19311 6.91136 8.06877 8.06877C6.94443 9.19311 6.21692 10.7804 6.21692 12.5C6.21692 14.2196 6.94443 15.8069 8.06877 16.9312C9.19311 18.0555 10.7804 18.7831 12.5 18.7831C14.2196 18.7831 15.8069 18.0886 16.9312 16.9312C18.0555 15.8069 18.7831 14.2196 18.7831 12.5C18.7831 10.7804 18.0886 9.19311 16.9312 8.06877Z" fill="#15B748"/>
<path d="M12.5 4.26587C12.9629 4.26587 13.3598 3.86905 13.3598 3.40608V0.859788C13.3598 0.396825 12.9629 0 12.5 0C12.037 0 11.6402 0.396825 11.6402 0.859788V3.40608C11.6402 3.86905 12.037 4.26587 12.5 4.26587Z" fill="#15B748"/>
<path d="M19.5437 6.67988L21.3624 4.8611C21.6931 4.53041 21.6931 4.00131 21.3624 3.67062C21.0317 3.33994 20.5026 3.33994 20.172 3.67062L18.3532 5.48941C18.0225 5.82009 18.0225 6.34919 18.3532 6.67988C18.6508 7.01057 19.1799 7.01057 19.5437 6.67988Z" fill="#15B748"/>
<path d="M24.1402 11.6402H21.5939C21.131 11.6402 20.7341 12.0371 20.7341 12.5C20.7341 12.963 21.131 13.3598 21.5939 13.3598H24.1402C24.6032 13.3598 25 12.963 25 12.5C25 12.0371 24.6032 11.6402 24.1402 11.6402Z" fill="#15B748"/>
<path d="M19.5106 18.3201C19.1799 17.9894 18.6508 17.9894 18.3202 18.3201C17.9895 18.6508 17.9895 19.1799 18.3202 19.5106L20.1389 21.3294C20.4696 21.6601 20.9987 21.6601 21.3294 21.3294C21.6601 20.9987 21.6601 20.4696 21.3294 20.1389L19.5106 18.3201Z" fill="#15B748"/>
<path d="M12.5 20.7341C12.037 20.7341 11.6402 21.131 11.6402 21.5939V24.1402C11.6402 24.6032 12.037 25 12.5 25C12.9629 25 13.3598 24.6032 13.3598 24.1402V21.5939C13.3598 21.131 12.9629 20.7341 12.5 20.7341Z" fill="#15B748"/>
<path d="M5.45633 18.3201L3.63754 20.1389C3.30685 20.4696 3.30685 20.9987 3.63754 21.3294C3.96823 21.6601 4.49733 21.6601 4.82802 21.3294L6.6468 19.5106C6.97749 19.1799 6.97749 18.6508 6.6468 18.3201C6.34918 17.9894 5.82008 17.9894 5.45633 18.3201Z" fill="#15B748"/>
<path d="M4.26587 12.5C4.26587 12.0371 3.86905 11.6402 3.40608 11.6402H0.859788C0.396825 11.6402 0 12.0371 0 12.5C0 12.963 0.396825 13.3598 0.859788 13.3598H3.40608C3.86905 13.3598 4.26587 12.963 4.26587 12.5Z" fill="#15B748"/>
<path d="M5.45633 6.67988C5.78701 7.01057 6.31611 7.01057 6.6468 6.67988C6.97749 6.34919 6.97749 5.82009 6.6468 5.48941L4.82802 3.67062C4.49733 3.33994 3.96823 3.33994 3.63754 3.67062C3.30685 4.00131 3.30685 4.53041 3.63754 4.8611L5.45633 6.67988Z" fill="#15B748"/>
</svg>
