<svg width="12" height="12" viewBox="0 0 12 12" fill="none" xmlns="http://www.w3.org/2000/svg">
<path d="M6 0.25C2.685 0.25 0 2.89 0 6.146C0 8.7515 1.719 10.961 4.1025 11.74C4.4025 11.7955 4.5125 11.613 4.5125 11.4565C4.5125 11.3165 4.5075 10.9455 4.505 10.454C2.836 10.8095 2.484 9.663 2.484 9.663C2.211 8.9825 1.8165 8.8005 1.8165 8.8005C1.273 8.435 1.8585 8.4425 1.8585 8.4425C2.461 8.4835 2.7775 9.05 2.7775 9.05C3.3125 9.9515 4.182 9.691 4.525 9.5405C4.579 9.159 4.7335 8.8995 4.905 8.752C3.5725 8.6045 2.172 8.0975 2.172 5.8385C2.172 5.195 2.4045 4.669 2.7895 4.2565C2.722 4.1075 2.5195 3.508 2.842 2.696C2.842 2.696 3.3445 2.538 4.492 3.3005C4.972 3.1695 5.482 3.1045 5.992 3.1015C6.502 3.1045 7.012 3.1695 7.492 3.3005C8.632 2.538 9.1345 2.696 9.1345 2.696C9.457 3.508 9.2545 4.1075 9.1945 4.2565C9.577 4.669 9.8095 5.195 9.8095 5.8385C9.8095 8.1035 8.407 8.602 7.072 8.747C7.282 8.924 7.477 9.2855 7.477 9.838C7.477 10.627 7.4695 11.261 7.4695 11.4525C7.4695 11.607 7.5745 11.7915 7.882 11.7325C10.2825 10.9585 12 8.7475 12 6.146C12 2.89 9.3135 0.25 6 0.25Z" fill="#FCFCFC"/>
</svg>
