<svg width="25" height="25" viewBox="0 0 25 25" fill="none" xmlns="http://www.w3.org/2000/svg">
<path d="M23.9583 13.5201H1.04167C0.466665 13.5201 0 13.0534 0 12.4784C0 11.9034 0.466665 11.4367 1.04167 11.4367H23.9583C24.5333 11.4367 25 11.9034 25 12.4784C25 13.0534 24.5333 13.5201 23.9583 13.5201Z" fill="#15B748"/>
<path d="M23.9583 5.53385H1.04167C0.466665 5.53385 0 5.06718 0 4.49218C0 3.91718 0.466665 3.45052 1.04167 3.45052H23.9583C24.5333 3.45052 25 3.91718 25 4.49218C25 5.06718 24.5333 5.53385 23.9583 5.53385Z" fill="#15B748"/>
<path d="M23.9583 21.506H1.04167C0.466665 21.506 0 21.0393 0 20.4643C0 19.8893 0.466665 19.4227 1.04167 19.4227H23.9583C24.5333 19.4227 25 19.8893 25 20.4643C25 21.0393 24.5333 21.506 23.9583 21.506Z" fill="#15B748"/>
</svg>
